<svg width="88" height="100" viewBox="0 0 89 100" fill="none" xmlns="http://www.w3.org/2000/svg">
<path d="M88.632 0L80.5991 89.9895L44.4906 100L8.48149 90.0036L0.457031 0H88.632Z" fill="#D8E9A8"/>
<path d="M44.5449 92.3484L73.7224 84.2593L80.5871 7.35913H44.5449V92.3484Z" fill="#AFC966"/>
<path d="M44.5441 40.7402H18.8525L19.8419 51.7787H44.5441V40.7402Z" fill="#1E5128"/>
<path d="M44.5448 18.3979H44.5066H16.8652L17.8687 29.4366H44.5448V18.3979Z" fill="#1E5128"/>
<path d="M20.3359 57.2982L21.8824 74.6303L44.4942 80.9075L44.545 80.8934V69.4086L44.4966 69.4215L32.2028 66.1019L31.4169 57.2982H25.4431H20.3359Z" fill="#1E5128"/>
<path d="M58.0996 51.7787L56.8183 66.0949L44.5068 69.4179V80.9021L67.1365 74.6303L67.3026 72.7654L69.8965 43.7044L70.1659 40.7403L72.1587 18.3979H44.5068V29.4366H60.0613L59.0569 40.7403H44.5068V51.7787H58.0996Z" fill="#1E5128"/>
</svg>
