<svg width="102" height="91" viewBox="0 0 100 100" fill="none" xmlns="http://www.w3.org/2000/svg">
<g clip-path="url(#clip0_142_255)">
<path d="M17.3487 74.3669L17.3614 74.3771L17.3748 74.3864C19.3618 75.7708 20.4252 77.5783 21.2002 79.4512C21.5085 80.1965 21.7671 80.9414 22.0229 81.6782C22.0909 81.874 22.1587 82.0693 22.2272 82.2639C22.5486 83.1768 22.8843 84.0716 23.316 84.8692C24.8237 87.8766 28.2096 89.4537 31.7658 89.4537H37.6198V97.5851C37.6198 98.161 37.6702 98.7525 37.7785 99.29C16.3094 93.4771 0.5 74.0736 0.5 50.7603C0.5 22.9914 23.0185 0.5 50.8235 0.5C78.6285 0.5 101.147 22.9914 101.147 50.7603C101.147 72.4654 87.4201 90.8621 68.1927 97.8586C68.2097 97.7334 68.2229 97.5978 68.2229 97.4598V85.8994C68.2229 83.2641 67.3687 80.2018 65.924 77.4954C64.7352 75.2683 63.1247 73.2416 61.2125 71.8881C69.0039 70.8653 74.8645 68.3792 78.8394 64.7614C83.0671 60.9136 85.1179 55.8247 85.1179 49.987C85.1179 44.9868 83.1012 40.1344 79.5878 36.1587C80.2077 34.1542 80.8313 31.2063 80.9548 28.3535C81.0195 26.8598 80.948 25.3739 80.6576 24.0548C80.3681 22.7393 79.8523 21.551 78.9979 20.6977L78.8515 20.5515H78.6445C71.2224 20.5515 66.6122 25.1067 65.1531 26.6917C61.386 25.4676 57.3668 24.7376 52.9819 24.7376C48.7238 24.7376 44.585 25.4674 40.8103 26.6919C39.3525 25.111 34.7458 20.5515 27.3193 20.5515H27.1125L26.9662 20.6975C26.0818 21.5796 25.5486 22.7808 25.25 24.1052C24.9509 25.4315 24.8794 26.9145 24.9441 28.4006C25.0679 31.2443 25.6937 34.1651 26.2537 36.1563C22.7419 40.2367 20.5907 44.97 20.5907 49.987C20.5907 55.8276 22.6749 60.9158 26.9487 64.7938C30.9743 68.4466 36.9067 70.994 44.7797 72.1275C42.3582 73.8315 40.3918 76.59 39.1556 79.6102C36.7208 79.9575 34.0922 80.0728 32.3973 80.0728C30.5042 80.0728 29.4326 79.9113 28.5926 79.4778C27.7503 79.0431 27.0787 78.3045 26.0602 76.9691L26.06 76.9688C23.9899 74.2591 21.7492 72.3906 18.9395 71.5902L18.8942 71.5772L18.8472 71.573C18.0501 71.5016 17.2403 71.7418 16.8287 72.2987C16.6097 72.5951 16.52 72.9677 16.6224 73.3591C16.7203 73.7336 16.9792 74.072 17.3487 74.3669Z" fill="#D8E9A8" stroke="#D8E9A8"/>
</g>
<defs>
<clipPath id="clip0_142_255">
<rect width="101.647" height="100" fill="white"/>
</clipPath>
</defs>
</svg>
