<svg width="78" height="80" viewBox="0 0 78 80" fill="none" xmlns="http://www.w3.org/2000/svg">
<g id="Group">
<path id="Vector" d="M69.4769 80.0001H63.115C61.0943 80.0001 59.1564 79.1974 57.7275 77.7686C56.2987 76.3397 55.496 74.4018 55.496 72.3811V51.924C55.53 51.1217 55.2875 50.3321 54.809 49.6871C54.3306 49.0422 53.6451 48.5812 52.8674 48.3812C52.415 48.3123 51.953 48.3412 51.5127 48.4661C51.0724 48.591 50.664 48.8088 50.3151 49.105C49.9559 49.4098 49.6676 49.7892 49.4702 50.2169C49.2728 50.6446 49.1711 51.1101 49.1722 51.5812V72.3811C49.1722 74.4018 48.3695 76.3397 46.9406 77.7686C45.5118 79.1974 43.5739 80.0001 41.5532 80.0001H35.1913C33.1706 80.0001 31.2327 79.1974 29.8038 77.7686C28.375 76.3397 27.5723 74.4018 27.5723 72.3811V51.5812C27.5723 48.3294 28.2128 45.1095 29.4571 42.1052C30.7015 39.101 32.5255 36.3713 34.8248 34.0719C37.1242 31.7726 39.8539 29.9486 42.8582 28.7042C45.8624 27.4598 49.0823 26.8193 52.3341 26.8193C55.5859 26.8193 58.8058 27.4598 61.81 28.7042C64.8143 29.9486 67.544 31.7726 69.8433 34.0719C72.1427 36.3713 73.9666 39.101 75.211 42.1052C76.4554 45.1095 77.0959 48.3294 77.0959 51.5812V72.3811C77.0959 74.4018 76.2932 76.3397 74.8644 77.7686C73.4355 79.1974 71.4976 80.0001 69.4769 80.0001ZM52.3341 40.7241C52.9303 40.6864 53.5283 40.6864 54.1246 40.7241C56.6822 41.216 58.9849 42.5928 60.6288 44.6129C62.2728 46.633 63.1529 49.1674 63.115 51.7716V72.3811H69.4769V51.5812C69.4769 47.0346 67.6708 42.6743 64.4559 39.4594C61.241 36.2445 56.8806 34.4384 52.3341 34.4384C47.7875 34.4384 43.4272 36.2445 40.2123 39.4594C36.9974 42.6743 35.1913 47.0346 35.1913 51.5812V72.3811H41.5532V51.5812C41.5531 48.7148 42.6865 45.9648 44.7062 43.9308C46.7258 41.8969 49.4678 40.7442 52.3341 40.7241Z" fill="#D8E9A8"/>
<path id="Vector_2" d="M16.1433 80.0002H8.5243C6.50361 80.0002 4.56568 79.1974 3.13683 77.7686C1.70799 76.3397 0.905273 74.4018 0.905273 72.3811V34.286C0.905273 32.2653 1.70799 30.3274 3.13683 28.8986C4.56568 27.4697 6.50361 26.667 8.5243 26.667H16.1433C18.164 26.667 20.1019 27.4697 21.5308 28.8986C22.9596 30.3274 23.7623 32.2653 23.7623 34.286V72.3811C23.7623 74.4018 22.9596 76.3397 21.5308 77.7686C20.1019 79.1974 18.164 80.0002 16.1433 80.0002ZM8.5243 34.286V72.3811H16.1433V34.286H8.5243Z" fill="#D8E9A8"/>
<path id="Vector_3" d="M12.3338 22.8571C10.0735 22.8571 7.86387 22.1868 5.98446 20.931C4.10505 19.6752 2.64022 17.8903 1.77522 15.802C0.910225 13.7138 0.683902 11.4159 1.12487 9.19894C1.56585 6.98202 2.65431 4.94565 4.25262 3.34735C5.85093 1.74904 7.8873 0.660574 10.1042 0.219601C12.3211 -0.221371 14.619 0.00495182 16.7073 0.86995C18.7956 1.73495 20.5805 3.19977 21.8363 5.07919C23.0921 6.9586 23.7623 9.16819 23.7623 11.4285C23.7623 14.4596 22.5583 17.3665 20.415 19.5097C18.2717 21.653 15.3649 22.8571 12.3338 22.8571ZM12.3338 7.61903C11.5804 7.61903 10.8438 7.84245 10.2174 8.26105C9.59089 8.67964 9.10262 9.2746 8.81428 9.9707C8.52595 10.6668 8.45051 11.4328 8.5975 12.1717C8.74449 12.9107 9.10731 13.5895 9.64008 14.1223C10.1729 14.655 10.8516 15.0179 11.5906 15.1649C12.3296 15.3118 13.0956 15.2364 13.7916 14.9481C14.4877 14.6597 15.0827 14.1715 15.5013 13.545C15.9199 12.9185 16.1433 12.182 16.1433 11.4285C16.1433 10.4182 15.742 9.44923 15.0275 8.73481C14.3131 8.02039 13.3442 7.61903 12.3338 7.61903Z" fill="#D8E9A8"/>
</g>
</svg>
