<svg width="70" height="80" viewBox="0 0 76 60" fill="none" xmlns="http://www.w3.org/2000/svg">
<path id="Vector" d="M64.25 0H11.75C8.76631 0 5.90483 1.18526 3.79505 3.29505C1.68526 5.40483 0.5 8.26631 0.5 11.25V48.75C0.5 51.7337 1.68526 54.5952 3.79505 56.705C5.90483 58.8147 8.76631 60 11.75 60H64.25C67.2337 60 70.0952 58.8147 72.205 56.705C74.3147 54.5952 75.5 51.7337 75.5 48.75V11.25C75.5 8.26631 74.3147 5.40483 72.205 3.29505C70.0952 1.18526 67.2337 0 64.25 0ZM61.7375 7.5L38 25.3125L14.2625 7.5H61.7375ZM64.25 52.5H11.75C10.7554 52.5 9.80161 52.1049 9.09835 51.4017C8.39509 50.6984 8 49.7446 8 48.75V12.1875L35.75 33C36.3991 33.4868 37.1886 33.75 38 33.75C38.8114 33.75 39.6009 33.4868 40.25 33L68 12.1875V48.75C68 49.7446 67.6049 50.6984 66.9017 51.4017C66.1984 52.1049 65.2446 52.5 64.25 52.5Z" fill="#D8E9A8"/>
</svg>
