<svg width="70" height="80" viewBox="0 0 70 70" fill="none" xmlns="http://www.w3.org/2000/svg">
<g id="&#240;&#159;&#166;&#134; icon &#34;phone&#34;">
<path id="Vector" d="M64.9388 49.9215V58.9539C64.9422 59.7925 64.7705 60.6224 64.4346 61.3907C64.0986 62.159 63.606 62.8487 62.9881 63.4156C62.3702 63.9824 61.6407 64.414 60.8464 64.6826C60.0521 64.9513 59.2104 65.051 58.3753 64.9756C49.1105 63.9689 40.2111 60.803 32.392 55.7324C25.1174 51.1098 18.9498 44.9422 14.3272 37.6675C9.23886 29.813 6.07228 20.8702 5.08401 11.5638C5.00877 10.7313 5.10772 9.89213 5.37455 9.09988C5.64139 8.30763 6.07026 7.57962 6.63387 6.9622C7.19748 6.34478 7.88347 5.85148 8.64817 5.5137C9.41288 5.17593 10.2395 5.00108 11.0755 5.00029H20.1079C21.5691 4.98591 22.9856 5.50333 24.0935 6.45612C25.2014 7.4089 25.925 8.73203 26.1295 10.1789C26.5108 13.0695 27.2178 15.9076 28.2371 18.6392C28.6422 19.7169 28.7299 20.8881 28.4897 22.014C28.2496 23.1399 27.6917 24.1734 26.8822 24.992L23.0585 28.8158C27.3446 36.3535 33.5857 42.5946 41.1234 46.8806L44.9471 43.0569C45.7657 42.2474 46.7992 41.6895 47.9251 41.4494C49.0511 41.2093 50.2222 41.2969 51.2999 41.702C54.0315 42.7213 56.8697 43.4284 59.7603 43.8096C61.2228 44.0159 62.5585 44.7526 63.5133 45.8795C64.4681 47.0064 64.9755 48.445 64.9388 49.9215Z" stroke="#D8E9A8" stroke-width="10" stroke-linecap="round" stroke-linejoin="round"/>
</g>
</svg>
