<svg width="113" height="100" viewBox="0 0 113 100" fill="none" xmlns="http://www.w3.org/2000/svg">
<path d="M56.3231 59.9333C61.8648 59.9333 66.3572 55.4409 66.3572 49.8993C66.3572 44.3576 61.8648 39.8652 56.3231 39.8652C50.7815 39.8652 46.2891 44.3576 46.2891 49.8993C46.2891 55.4409 50.7815 59.9333 56.3231 59.9333Z" fill="#D8E9A8"/>
<path d="M56.3235 72.9053C44.2631 73.197 32.2329 71.5713 20.6826 68.0889C15.3469 66.3975 10.3705 63.7331 6.00474 60.2303C4.33881 59.0336 2.95146 57.4907 1.93791 55.7075C0.924349 53.9242 0.308567 51.9428 0.132812 49.8992C0.132812 43.2647 7.42155 36.7626 19.631 32.5082C31.4902 28.7384 43.881 26.9113 56.3235 27.0978C68.6 26.9263 80.8248 28.7203 92.5344 32.4118C97.673 34.05 102.481 36.5857 106.735 39.9013C108.372 41.0421 109.739 42.5291 110.737 44.2568C111.736 45.9846 112.343 47.9109 112.514 49.8992C112.514 56.7946 104.367 63.7823 91.242 68.125C79.9153 71.494 68.1389 73.1061 56.3235 72.9053ZM56.3235 31.8981C44.4196 31.739 32.5662 33.4759 21.2083 37.0436C9.9702 40.9649 4.9331 46.3271 4.9331 49.8871C4.9331 53.6118 10.3475 59.4677 22.2358 63.5335C33.2856 66.8481 44.7908 68.3911 56.3235 68.105C67.6275 68.3071 78.8958 66.7776 89.7369 63.5696C102.079 59.4797 107.698 53.6158 107.698 49.8992C107.495 48.6238 107.031 47.4042 106.333 46.3175C105.635 45.2308 104.72 44.3007 103.644 43.5858C99.8382 40.6444 95.5434 38.3971 90.957 36.9472C79.7551 33.4303 68.0633 31.7258 56.3235 31.8981Z" fill="#D8E9A8"/>
<path d="M33.5261 99.9451C31.6538 99.988 29.8035 99.5338 28.1639 98.6286C22.4164 95.3134 20.4257 85.7529 22.8379 73.0498C25.4975 60.8929 30.1057 49.2462 36.4842 38.5607C42.4674 27.8408 50.1272 18.1471 59.1732 9.8473C63.1593 6.21379 67.7578 3.3153 72.7553 1.28624C74.5628 0.439124 76.5346 0 78.5309 0C80.5271 0 82.4989 0.439124 84.3065 1.28624C90.2828 4.72993 92.2615 15.2777 89.472 28.8157C86.7303 40.3129 82.2417 51.3218 76.1628 61.4585C70.3902 72.0518 62.9716 81.6611 54.1842 89.9271C50.0534 93.703 45.2593 96.6818 40.0443 98.7129C37.9564 99.4878 35.7527 99.9044 33.5261 99.9451ZM40.6423 40.9448C34.558 51.1769 30.1413 62.3122 27.5579 73.9328C25.3383 85.6325 27.4696 92.6684 30.5681 94.4585C33.779 96.3168 41.5734 94.5548 51.0376 86.2867C59.4261 78.3677 66.507 69.1694 72.0168 59.0342C77.8403 49.3434 82.1459 38.8182 84.7841 27.8243C87.409 15.0811 85.1413 7.27858 81.9224 5.42429C80.7159 4.96202 79.4267 4.75509 78.1362 4.81658C76.8457 4.87807 75.582 5.20663 74.4249 5.7815C69.9766 7.61712 65.8869 10.2231 62.3439 13.4796C53.7013 21.4298 46.3845 30.7098 40.6704 40.9689L40.6423 40.9448Z" fill="#D8E9A8"/>
<path d="M79.1084 99.9973C73.6699 99.9973 66.7625 96.7061 59.5701 90.5211C50.3657 82.1458 42.5763 72.337 36.5038 61.4746C30.2054 50.9362 25.6336 39.458 22.9618 27.4752C21.8031 22.2032 21.5884 16.7676 22.3277 11.4207C22.4986 9.43717 23.1026 7.51531 24.097 5.79062C25.0915 4.06593 26.4522 2.5804 28.0832 1.4388C34.0515 -2.01693 44.1778 1.53513 54.5129 10.7103C63.1045 18.8266 70.4004 28.2125 76.1463 38.5407C82.4409 48.833 87.0606 60.0599 89.8328 71.8016C91.0414 77.267 91.2278 82.9089 90.3827 88.4421C90.1816 90.4827 89.5416 92.4556 88.5066 94.2256C87.4716 95.9957 86.066 97.521 84.3863 98.6969C82.7735 99.5908 80.9519 100.04 79.1084 99.9973ZM40.6579 59.0584C46.4834 69.4393 53.9241 78.8269 62.7007 86.8688C71.7274 94.6351 78.8876 96.3048 81.9661 94.4946C85.177 92.6283 87.545 85.0104 85.1047 72.6846C82.4312 61.4743 78.0002 50.7578 71.9762 40.9328C66.4929 31.0478 59.5289 22.0602 51.3261 14.2824C41.5971 5.64507 33.7063 3.71452 30.4914 5.57684C29.4894 6.39113 28.6671 7.40434 28.0764 8.55249C27.4858 9.70064 27.1396 10.9588 27.0598 12.2475C26.4216 17.016 26.6295 21.8597 27.6738 26.556C30.2438 38.0155 34.6284 48.9907 40.6619 59.0664L40.6579 59.0584Z" fill="#D8E9A8"/>
</svg>
