<svg width="42" height="43" viewBox="0 0 42 43" fill="none" xmlns="http://www.w3.org/2000/svg">
<path d="M38.6 1.5H3.4C2.07452 1.5 1 2.57452 1 3.9V39.1C1 40.4255 2.07452 41.5 3.4 41.5H38.6C39.9255 41.5 41 40.4255 41 39.1V3.9C41 2.57452 39.9255 1.5 38.6 1.5Z" stroke="#D8E9A8" stroke-width="1.2" stroke-miterlimit="10"/>
<path d="M8.2002 16.7001H13.0002V33.5001H8.2002V16.7001Z" stroke="#D8E9A8" stroke-width="1.2" stroke-linecap="round" stroke-linejoin="round"/>
<path d="M10.5998 13.1C12.1462 13.1 13.3998 11.8464 13.3998 10.3C13.3998 8.7536 12.1462 7.5 10.5998 7.5C9.05341 7.5 7.7998 8.7536 7.7998 10.3C7.7998 11.8464 9.05341 13.1 10.5998 13.1Z" stroke="#D8E9A8" stroke-width="1.2" stroke-linecap="round" stroke-linejoin="round"/>
<path d="M26.2002 20.6999C24.433 20.6999 23.0002 21.6343 23.0002 24.2999V33.4999H18.2002V16.6999H23.0002V18.4679H22.9989C23.5989 17.7857 24.3376 17.2395 25.1657 16.8656C25.9937 16.4917 26.892 16.2989 27.8005 16.2999C31.3349 16.2999 34.2005 18.9399 34.2005 23.4999V33.4999H29.4005V24.2999C29.4005 21.6343 27.9674 20.6999 26.2002 20.6999Z" stroke="#D8E9A8" stroke-width="1.2" stroke-linecap="round" stroke-linejoin="round"/>
</svg>
