<svg width="42" height="43" viewBox="0 0 42 43" fill="none" xmlns="http://www.w3.org/2000/svg">
<path d="M30.2229 1.5H11.7771C5.82512 1.5 1 6.32512 1 12.2771V30.7229C1 36.6749 5.82512 41.5 11.7771 41.5H30.2229C36.1749 41.5 41 36.6749 41 30.7229V12.2771C41.0001 6.32512 36.175 1.5 30.2229 1.5Z" stroke="#D8E9A8" stroke-width="1.2" stroke-miterlimit="10"/>
<path d="M20.9999 31.1553C26.3324 31.1553 30.6551 26.8325 30.6551 21.5001C30.6551 16.1676 26.3324 11.8448 20.9999 11.8448C15.6675 11.8448 11.3447 16.1676 11.3447 21.5001C11.3447 26.8325 15.6675 31.1553 20.9999 31.1553Z" stroke="#D8E9A8" stroke-width="1.2" stroke-miterlimit="10"/>
<path d="M34.1932 9.77589C34.1932 10.5872 33.5356 11.2449 32.7243 11.2449C31.913 11.2449 31.2553 10.5872 31.2553 9.77589C31.2553 8.9646 31.913 8.30691 32.7243 8.30691C33.5356 8.30691 34.1932 8.9646 34.1932 9.77589Z" fill="black" stroke="#D8E9A8" stroke-width="1.2"/>
</svg>
